{"title":"X-Men Origins Wolverine.BRrip.Dual Audio(Hindi).aaaevilacharya ","uid":5832580,"size":1764757841,"categoryP":"video","categoryS":"movies","magnet":"?xt=urn:btih:0931f7d958900cabd6bad9d147f9e9d99153c6d0&amp;dn=X-Men+Origins+Wolverine.BRrip.Dual+Audio%28Hindi%29.aaaevilacharya+&amp;tr=udp%3A%2F%2Ftracker.openbittorrent.com%3A80&amp;tr=udp%3A%2F%2Fopen.demonii.com%3A1337&amp;tr=udp%3A%2F%2Ftracker.coppersurfer.tk%3A6969&amp;tr=udp%3A%2F%2Fexodus.desync.com%3A6969","seeders":0,"leechers":1,"uploader":"achaevil","files":2,"time":1284578951,"description":"X-Men Origins Wolverine.BRrip.Dual Audio(Hindi).aaaevilacharya \n\nGeneral\nComplete name :X-Men Origins Wolverine.720p BRrip.Dual Audio(Hindi).aaaevilacharya\n\n***16mb.sample file****\n\nFormat : MPEG-4\nFormat profile : Base Media\nCodec ID : isom\nFile size : 1.63 GiB\nDuration : 1h 47mn\nOverall bit rate : 2 170 Kbps\nEncoded date : UTC 2010-01-12 12:16:13\nTagged date : UTC 2010-01-12 12:16:13\nWriting application : Yamb 2.1.0.0 [http://yamb.unite-video.com]\n\nVideo\nID : 1\nFormat : AVC\nFormat/Info : Advanced Video Codec\nFormat profile : &lt;a class=&quot;__cf_email__&quot; href=&quot;/cdn-cgi/l/email-protection&quot; data-cfemail=&quot;cf82aea6a18f83fbe1fe&quot;&gt;[email&amp;#160;protected]&lt;/a&gt;&lt;script data-cfhash='f9e31' type=&quot;text/javascript&quot;&gt;\n/* &lt;![CDATA[ */!function(){try{var t=&quot;currentScript&quot;in document?document.currentScript:function(){for(var t=document.getElementsByTagName(&quot;script&quot;),e=t.length;e--;)if(t[e].getAttribute(&quot;data-cfhash&quot;))return t[e]}();if(t&amp;&amp;t.previousSibling){var e,r,n,i,c=t.previousSibling,a=c.getAttribute(&quot;data-cfemail&quot;);if(a){for(e=&quot;&quot;,r=parseInt(a.substr(0,2),16),n=2;a.length-n;n+=2)i=parseInt(a.substr(n,2),16)^r,e+=String.fromCharCode(i);e=document.createTextNode(e),c.parentNode.replaceChild(e,c)}t.parentNode.removeChild(t);}}catch(u){}}()/* ]]&gt; */&lt;/script&gt;\nFormat settings, CABAC : Yes\nFormat settings, ReFrames : 4 frames\nCodec ID : avc1\nCodec ID/Info : Advanced Video Coding\nDuration : 1h 47mn\nBit rate mode : Variable\nBit rate : 1 730 Kbps\nMaximum bit rate : 10.3 Mbps\nWidth : 1 280 pixels\nHeight : 544 pixels\nDisplay aspect ratio : 2.35:1\nFrame rate mode : Constant\nFrame rate : 23.976 fps\nColor space : YUV\nChroma subsampling : 4:2:0\nBit depth : 8 bits\nScan type : Progressive\nBits/(Pixel*Frame) : 0.104\nStream size : 1.30 GiB (80%)\n\n\nAudio #1 -ENGLISH\nID : 2\nFormat : AAC\nFormat/Info : Advanced Audio Codec\nFormat version : Version 4\nFormat profile : LC\nFormat settings, SBR : No\nCodec ID : 40\nDuration : 1h 47mn\nBit rate mode : Variable\nBit rate : 192 Kbps\nMaximum bit rate : 253 Kbps\nChannel(s) : 6 channels\nChannel positions : Front: L C R, Side: L R, LFE\nSampling rate : 48.0 KHz\nStream size : 149 MiB (9%)\n\n\nAudio #2 -HINDI\nID : 3\nFormat : MPEG Audio\nFormat version : Version 1\nFormat profile : Layer 3\nMode : Joint stereo\nMode extension : MS Stereo\nCodec ID : 6B\nDuration : 1h 41mn\nBit rate mode : Constant\nBit rate : 256 Kbps\nMaximum bit rate : 264 Kbps\nChannel(s) : 2 channels\nSampling rate : 48.0 KHz\nStream size : 186 MiB (11%)\nWriting library : LAME3.98\n\n\nSCREENSHOTS.\n","torrent":{"xt":"urn:btih:0931f7d958900cabd6bad9d147f9e9d99153c6d0","amp;dn":"X-Men+Origins+Wolverine.BRrip.Dual+Audio%28Hindi%29.aaaevilacharya+","amp;tr":["udp%3A%2F%2Ftracker.openbittorrent.com%3A80","udp%3A%2F%2Fopen.demonii.com%3A1337","udp%3A%2F%2Ftracker.coppersurfer.tk%3A6969","udp%3A%2F%2Fexodus.desync.com%3A6969"],"infoHash":"0931f7d958900cabd6bad9d147f9e9d99153c6d0","infoHashBuffer":{"type":"Buffer","data":[9,49,247,217,88,144,12,171,214,186,217,209,71,249,233,217,145,83,198,208]},"announce":[],"urlList":[]}}